<mxfile host="Electron" modified="2024-05-24T12:33:07.114Z" agent="Mozilla/5.0 (X11; Linux x86_64) AppleWebKit/537.36 (KHTML, like Gecko) draw.io/24.4.0 Chrome/120.0.6099.109 Electron/28.1.0 Safari/537.36" etag="ztQ0M_0vjTWcI0zGlv6i" version="24.4.0" type="device">
  <diagram id="0d0418cf-194d-6f34-59b4-59e4f961d9f4" name="Page-1">
    <mxGraphModel dx="2200" dy="1929" grid="1" gridSize="10" guides="1" tooltips="1" connect="1" arrows="1" fold="1" page="1" pageScale="1" pageWidth="850" pageHeight="1100" background="#ffffff" math="0" shadow="0">
      <root>
        <mxCell id="0" />
        <mxCell id="1" parent="0" />
        <mxCell id="FLBWLRREEo4RobXQaIjN-500" value="" style="rounded=1;whiteSpace=wrap;html=1;fontSize=20;fillColor=#dae8fc;strokeColor=#000000;" parent="1" vertex="1">
          <mxGeometry x="-371" y="-80" width="170" height="90" as="geometry" />
        </mxCell>
        <mxCell id="FLBWLRREEo4RobXQaIjN-583" value="" style="endArrow=classic;html=1;rounded=0;fontSize=20;" parent="1" source="FLBWLRREEo4RobXQaIjN-495" target="FLBWLRREEo4RobXQaIjN-580" edge="1">
          <mxGeometry width="50" height="50" relative="1" as="geometry">
            <mxPoint x="-280" y="-30" as="sourcePoint" />
            <mxPoint x="-230" y="-40" as="targetPoint" />
          </mxGeometry>
        </mxCell>
        <mxCell id="FLBWLRREEo4RobXQaIjN-495" value="YM2149" style="rounded=1;whiteSpace=wrap;html=1;fontSize=20;fillColor=#dae8fc;strokeColor=#000000;" parent="1" vertex="1">
          <mxGeometry x="-346" y="-60" width="130" height="60" as="geometry" />
        </mxCell>
        <mxCell id="FLBWLRREEo4RobXQaIjN-517" value="USB HID" style="rounded=1;whiteSpace=wrap;html=1;fontSize=20;fillColor=#dae8fc;strokeColor=#000000;" parent="1" vertex="1">
          <mxGeometry x="-311" y="290" width="111" height="50" as="geometry" />
        </mxCell>
        <mxCell id="FLBWLRREEo4RobXQaIjN-560" value="" style="rounded=0;whiteSpace=wrap;html=1;fontSize=20;fillColor=#000000;strokeColor=#000000;" parent="1" vertex="1">
          <mxGeometry x="-211" y="315" width="10" height="10" as="geometry" />
        </mxCell>
        <mxCell id="FLBWLRREEo4RobXQaIjN-397" value="Wishbone&lt;br&gt;Crossbar" style="rounded=0;whiteSpace=wrap;html=1;fontSize=20;fontStyle=1;fillColor=#DAE8FC;" parent="1" vertex="1">
          <mxGeometry x="-0.2" y="160" width="530.2" height="80" as="geometry" />
        </mxCell>
        <mxCell id="FLBWLRREEo4RobXQaIjN-398" value="32K&lt;br&gt;DPRAM&lt;br&gt;CMEM" style="rounded=1;whiteSpace=wrap;html=1;fontSize=20;fillColor=#DAE8FC;" parent="1" vertex="1">
          <mxGeometry x="319.8" y="280" width="120" height="100" as="geometry" />
        </mxCell>
        <mxCell id="FLBWLRREEo4RobXQaIjN-399" value="32K&lt;br&gt;DPRAM&lt;br&gt;DMEM" style="rounded=1;whiteSpace=wrap;html=1;fontSize=20;fillColor=#DAE8FC;" parent="1" vertex="1">
          <mxGeometry x="408" y="400" width="120" height="100" as="geometry" />
        </mxCell>
        <mxCell id="FLBWLRREEo4RobXQaIjN-400" value="Ibex&lt;br style=&quot;font-size: 20px&quot;&gt;RV32IMCB&lt;br style=&quot;font-size: 20px&quot;&gt;" style="rounded=1;whiteSpace=wrap;html=1;fontSize=20;fillColor=#dae8fc;strokeColor=#000000;" parent="1" vertex="1">
          <mxGeometry x="-0.2" y="40" width="120" height="80" as="geometry" />
        </mxCell>
        <mxCell id="FLBWLRREEo4RobXQaIjN-401" value="riscv-dbg&lt;br style=&quot;font-size: 20px;&quot;&gt;JTAG DTM&lt;br style=&quot;font-size: 20px;&quot;&gt;" style="rounded=1;whiteSpace=wrap;html=1;fontSize=20;fillColor=#dae8fc;strokeColor=#000000;" parent="1" vertex="1">
          <mxGeometry x="50" y="-60" width="140.2" height="80" as="geometry" />
        </mxCell>
        <mxCell id="FLBWLRREEo4RobXQaIjN-402" value="LiteDRAM MEMC" style="rounded=1;whiteSpace=wrap;html=1;fontSize=20;fillColor=#dae8fc;strokeColor=#000000;" parent="1" vertex="1">
          <mxGeometry x="159.8" y="280" width="120" height="80" as="geometry" />
        </mxCell>
        <mxCell id="FLBWLRREEo4RobXQaIjN-403" value="PicoRV&lt;br&gt;DMA" style="rounded=1;whiteSpace=wrap;html=1;fontSize=20;fillColor=#dae8fc;strokeColor=#000000;" parent="1" vertex="1">
          <mxGeometry x="160" y="40" width="120" height="80" as="geometry" />
        </mxCell>
        <mxCell id="FLBWLRREEo4RobXQaIjN-404" value="VERA Graphics&lt;br&gt;64KB VRAM" style="rounded=1;whiteSpace=wrap;html=1;fontSize=20;fillColor=#dae8fc;strokeColor=#000000;" parent="1" vertex="1">
          <mxGeometry x="319.8" width="120" height="120" as="geometry" />
        </mxCell>
        <mxCell id="FLBWLRREEo4RobXQaIjN-419" value="" style="rounded=0;whiteSpace=wrap;html=1;fontSize=20;fillColor=#000000;" parent="1" vertex="1">
          <mxGeometry x="35.8" y="160" width="10" height="10" as="geometry" />
        </mxCell>
        <mxCell id="FLBWLRREEo4RobXQaIjN-422" value="" style="endArrow=classic;html=1;rounded=0;fontSize=20;" parent="1" source="FLBWLRREEo4RobXQaIjN-441" edge="1">
          <mxGeometry width="50" height="50" relative="1" as="geometry">
            <mxPoint x="40.8" y="130" as="sourcePoint" />
            <mxPoint x="40.8" y="160" as="targetPoint" />
          </mxGeometry>
        </mxCell>
        <mxCell id="FLBWLRREEo4RobXQaIjN-429" value="" style="endArrow=classic;html=1;rounded=0;fontSize=20;" parent="1" source="FLBWLRREEo4RobXQaIjN-442" target="FLBWLRREEo4RobXQaIjN-430" edge="1">
          <mxGeometry width="50" height="50" relative="1" as="geometry">
            <mxPoint x="80.8" y="130" as="sourcePoint" />
            <mxPoint x="-185.2" y="195" as="targetPoint" />
          </mxGeometry>
        </mxCell>
        <mxCell id="FLBWLRREEo4RobXQaIjN-430" value="" style="rounded=0;whiteSpace=wrap;html=1;fontSize=20;fillColor=#000000;" parent="1" vertex="1">
          <mxGeometry x="75.8" y="160" width="10" height="10" as="geometry" />
        </mxCell>
        <mxCell id="FLBWLRREEo4RobXQaIjN-432" value="" style="rounded=0;whiteSpace=wrap;html=1;fontSize=20;fillColor=#000000;" parent="1" vertex="1">
          <mxGeometry x="130" y="10" width="10" height="10" as="geometry" />
        </mxCell>
        <mxCell id="FLBWLRREEo4RobXQaIjN-434" value="" style="endArrow=classic;html=1;rounded=0;fontSize=20;" parent="1" source="FLBWLRREEo4RobXQaIjN-432" target="FLBWLRREEo4RobXQaIjN-433" edge="1">
          <mxGeometry width="50" height="50" relative="1" as="geometry">
            <mxPoint x="-290.2" y="420" as="sourcePoint" />
            <mxPoint x="-240.2" y="370" as="targetPoint" />
          </mxGeometry>
        </mxCell>
        <mxCell id="FLBWLRREEo4RobXQaIjN-441" value="" style="rounded=0;whiteSpace=wrap;html=1;fontSize=20;fillColor=#000000;" parent="1" vertex="1">
          <mxGeometry x="35.8" y="110" width="10" height="10" as="geometry" />
        </mxCell>
        <mxCell id="FLBWLRREEo4RobXQaIjN-442" value="" style="rounded=0;whiteSpace=wrap;html=1;fontSize=20;fillColor=#000000;" parent="1" vertex="1">
          <mxGeometry x="75.8" y="110" width="10" height="10" as="geometry" />
        </mxCell>
        <mxCell id="FLBWLRREEo4RobXQaIjN-444" value="" style="rounded=0;whiteSpace=wrap;html=1;fontSize=20;fillColor=#000000;" parent="1" vertex="1">
          <mxGeometry x="374.8" y="160" width="10" height="10" as="geometry" />
        </mxCell>
        <mxCell id="FLBWLRREEo4RobXQaIjN-445" value="" style="rounded=0;whiteSpace=wrap;html=1;fontSize=20;fillColor=#000000;" parent="1" vertex="1">
          <mxGeometry x="374.8" y="110" width="10" height="10" as="geometry" />
        </mxCell>
        <mxCell id="FLBWLRREEo4RobXQaIjN-446" value="" style="endArrow=classic;html=1;rounded=0;fontSize=20;" parent="1" source="FLBWLRREEo4RobXQaIjN-444" target="FLBWLRREEo4RobXQaIjN-445" edge="1">
          <mxGeometry width="50" height="50" relative="1" as="geometry">
            <mxPoint x="129.8" y="370" as="sourcePoint" />
            <mxPoint x="179.8" y="320" as="targetPoint" />
          </mxGeometry>
        </mxCell>
        <mxCell id="FLBWLRREEo4RobXQaIjN-448" value="" style="rounded=0;whiteSpace=wrap;html=1;fontSize=20;fillColor=#000000;" parent="1" vertex="1">
          <mxGeometry x="214.99999999999994" y="110" width="10" height="10" as="geometry" />
        </mxCell>
        <mxCell id="FLBWLRREEo4RobXQaIjN-449" value="" style="rounded=0;whiteSpace=wrap;html=1;fontSize=20;fillColor=#000000;" parent="1" vertex="1">
          <mxGeometry x="214.79999999999995" y="160" width="10" height="10" as="geometry" />
        </mxCell>
        <mxCell id="FLBWLRREEo4RobXQaIjN-450" value="" style="endArrow=classic;html=1;rounded=0;fontSize=20;" parent="1" source="FLBWLRREEo4RobXQaIjN-448" target="FLBWLRREEo4RobXQaIjN-449" edge="1">
          <mxGeometry width="50" height="50" relative="1" as="geometry">
            <mxPoint x="129.8" y="270" as="sourcePoint" />
            <mxPoint x="179.8" y="220" as="targetPoint" />
          </mxGeometry>
        </mxCell>
        <mxCell id="FLBWLRREEo4RobXQaIjN-462" value="" style="rounded=0;whiteSpace=wrap;html=1;fontSize=20;fillColor=#000000;" parent="1" vertex="1">
          <mxGeometry x="214.8" y="280" width="10" height="10" as="geometry" />
        </mxCell>
        <mxCell id="FLBWLRREEo4RobXQaIjN-463" value="" style="rounded=0;whiteSpace=wrap;html=1;fontSize=20;fillColor=#000000;" parent="1" vertex="1">
          <mxGeometry x="214.8" y="230" width="10" height="10" as="geometry" />
        </mxCell>
        <mxCell id="FLBWLRREEo4RobXQaIjN-464" value="" style="endArrow=classic;html=1;rounded=0;fontSize=20;" parent="1" source="FLBWLRREEo4RobXQaIjN-463" target="FLBWLRREEo4RobXQaIjN-462" edge="1">
          <mxGeometry width="50" height="50" relative="1" as="geometry">
            <mxPoint x="139.8" y="280" as="sourcePoint" />
            <mxPoint x="189.8" y="230" as="targetPoint" />
          </mxGeometry>
        </mxCell>
        <mxCell id="FLBWLRREEo4RobXQaIjN-466" value="" style="rounded=0;whiteSpace=wrap;html=1;fontSize=20;fillColor=#000000;" parent="1" vertex="1">
          <mxGeometry x="351.8" y="280" width="10" height="10" as="geometry" />
        </mxCell>
        <mxCell id="FLBWLRREEo4RobXQaIjN-467" value="" style="rounded=0;whiteSpace=wrap;html=1;fontSize=20;fillColor=#000000;" parent="1" vertex="1">
          <mxGeometry x="351.8" y="230" width="10" height="10" as="geometry" />
        </mxCell>
        <mxCell id="FLBWLRREEo4RobXQaIjN-468" value="" style="endArrow=classic;html=1;rounded=0;fontSize=20;" parent="1" source="FLBWLRREEo4RobXQaIjN-467" target="FLBWLRREEo4RobXQaIjN-466" edge="1">
          <mxGeometry width="50" height="50" relative="1" as="geometry">
            <mxPoint x="139.8" y="280" as="sourcePoint" />
            <mxPoint x="189.8" y="230" as="targetPoint" />
          </mxGeometry>
        </mxCell>
        <mxCell id="FLBWLRREEo4RobXQaIjN-469" value="" style="rounded=0;whiteSpace=wrap;html=1;fontSize=20;fillColor=#000000;" parent="1" vertex="1">
          <mxGeometry x="392.8" y="280" width="10" height="10" as="geometry" />
        </mxCell>
        <mxCell id="FLBWLRREEo4RobXQaIjN-470" value="" style="rounded=0;whiteSpace=wrap;html=1;fontSize=20;fillColor=#000000;" parent="1" vertex="1">
          <mxGeometry x="392.8" y="230" width="10" height="10" as="geometry" />
        </mxCell>
        <mxCell id="FLBWLRREEo4RobXQaIjN-471" value="" style="endArrow=classic;html=1;rounded=0;fontSize=20;" parent="1" source="FLBWLRREEo4RobXQaIjN-470" target="FLBWLRREEo4RobXQaIjN-469" edge="1">
          <mxGeometry width="50" height="50" relative="1" as="geometry">
            <mxPoint x="139.8" y="280" as="sourcePoint" />
            <mxPoint x="189.8" y="230" as="targetPoint" />
          </mxGeometry>
        </mxCell>
        <mxCell id="FLBWLRREEo4RobXQaIjN-472" value="" style="rounded=0;whiteSpace=wrap;html=1;fontSize=20;fillColor=#000000;" parent="1" vertex="1">
          <mxGeometry x="449" y="400" width="10" height="10" as="geometry" />
        </mxCell>
        <mxCell id="FLBWLRREEo4RobXQaIjN-473" value="" style="rounded=0;whiteSpace=wrap;html=1;fontSize=20;fillColor=#000000;" parent="1" vertex="1">
          <mxGeometry x="449" y="230" width="10" height="10" as="geometry" />
        </mxCell>
        <mxCell id="FLBWLRREEo4RobXQaIjN-474" value="" style="endArrow=classic;html=1;rounded=0;fontSize=20;" parent="1" source="FLBWLRREEo4RobXQaIjN-473" target="FLBWLRREEo4RobXQaIjN-472" edge="1">
          <mxGeometry width="50" height="50" relative="1" as="geometry">
            <mxPoint x="139.8" y="280" as="sourcePoint" />
            <mxPoint x="189.8" y="230" as="targetPoint" />
          </mxGeometry>
        </mxCell>
        <mxCell id="FLBWLRREEo4RobXQaIjN-475" value="" style="rounded=0;whiteSpace=wrap;html=1;fontSize=20;fillColor=#000000;" parent="1" vertex="1">
          <mxGeometry x="484.9999999999999" y="400" width="10" height="10" as="geometry" />
        </mxCell>
        <mxCell id="FLBWLRREEo4RobXQaIjN-476" value="" style="rounded=0;whiteSpace=wrap;html=1;fontSize=20;fillColor=#000000;" parent="1" vertex="1">
          <mxGeometry x="484.9999999999999" y="230" width="10" height="10" as="geometry" />
        </mxCell>
        <mxCell id="FLBWLRREEo4RobXQaIjN-477" value="" style="endArrow=classic;html=1;rounded=0;fontSize=20;" parent="1" source="FLBWLRREEo4RobXQaIjN-476" target="FLBWLRREEo4RobXQaIjN-475" edge="1">
          <mxGeometry width="50" height="50" relative="1" as="geometry">
            <mxPoint x="139.8" y="280" as="sourcePoint" />
            <mxPoint x="189.8" y="230" as="targetPoint" />
          </mxGeometry>
        </mxCell>
        <mxCell id="FLBWLRREEo4RobXQaIjN-479" value="&lt;b&gt;Wishbone&lt;br&gt;Shared&lt;br&gt;Bus&lt;/b&gt;" style="rounded=0;whiteSpace=wrap;html=1;fontSize=20;fillColor=#DAE8FC;" parent="1" vertex="1">
          <mxGeometry x="-160" y="-120" width="120" height="620" as="geometry" />
        </mxCell>
        <mxCell id="FLBWLRREEo4RobXQaIjN-480" value="" style="rounded=0;whiteSpace=wrap;html=1;fontSize=20;fillColor=#000000;" parent="1" vertex="1">
          <mxGeometry x="-50" y="195" width="10" height="10" as="geometry" />
        </mxCell>
        <mxCell id="FLBWLRREEo4RobXQaIjN-481" value="" style="rounded=0;whiteSpace=wrap;html=1;fontSize=20;fillColor=#000000;" parent="1" vertex="1">
          <mxGeometry x="1" y="195" width="10" height="10" as="geometry" />
        </mxCell>
        <mxCell id="FLBWLRREEo4RobXQaIjN-482" value="" style="endArrow=classic;html=1;rounded=0;fontSize=20;edgeStyle=orthogonalEdgeStyle;" parent="1" source="FLBWLRREEo4RobXQaIjN-481" target="FLBWLRREEo4RobXQaIjN-480" edge="1">
          <mxGeometry width="50" height="50" relative="1" as="geometry">
            <mxPoint x="140" y="400" as="sourcePoint" />
            <mxPoint x="190" y="350" as="targetPoint" />
          </mxGeometry>
        </mxCell>
        <mxCell id="FLBWLRREEo4RobXQaIjN-485" value="" style="rounded=0;whiteSpace=wrap;html=1;fontSize=20;fillColor=#000000;" parent="1" vertex="1">
          <mxGeometry x="50.000000000000014" y="-25" width="10" height="10" as="geometry" />
        </mxCell>
        <mxCell id="FLBWLRREEo4RobXQaIjN-486" value="" style="rounded=0;whiteSpace=wrap;html=1;fontSize=20;fillColor=#000000;" parent="1" vertex="1">
          <mxGeometry x="-50" y="-25" width="10" height="10" as="geometry" />
        </mxCell>
        <mxCell id="FLBWLRREEo4RobXQaIjN-487" value="" style="endArrow=classic;html=1;rounded=0;fontSize=20;edgeStyle=orthogonalEdgeStyle;" parent="1" source="FLBWLRREEo4RobXQaIjN-486" target="FLBWLRREEo4RobXQaIjN-485" edge="1">
          <mxGeometry width="50" height="50" relative="1" as="geometry">
            <mxPoint x="140" y="400" as="sourcePoint" />
            <mxPoint x="190" y="350" as="targetPoint" />
          </mxGeometry>
        </mxCell>
        <mxCell id="FLBWLRREEo4RobXQaIjN-489" value="" style="rounded=0;whiteSpace=wrap;html=1;fontSize=20;fillColor=#000000;" parent="1" vertex="1">
          <mxGeometry x="214.99999999999994" y="40" width="10" height="10" as="geometry" />
        </mxCell>
        <mxCell id="FLBWLRREEo4RobXQaIjN-490" value="" style="rounded=0;whiteSpace=wrap;html=1;fontSize=20;fillColor=#000000;" parent="1" vertex="1">
          <mxGeometry x="-50" y="-90" width="10" height="10" as="geometry" />
        </mxCell>
        <mxCell id="FLBWLRREEo4RobXQaIjN-491" value="" style="endArrow=classic;html=1;rounded=0;fontSize=20;edgeStyle=orthogonalEdgeStyle;" parent="1" source="FLBWLRREEo4RobXQaIjN-490" target="FLBWLRREEo4RobXQaIjN-489" edge="1">
          <mxGeometry width="50" height="50" relative="1" as="geometry">
            <mxPoint x="140" y="400" as="sourcePoint" />
            <mxPoint x="190" y="350" as="targetPoint" />
          </mxGeometry>
        </mxCell>
        <mxCell id="FLBWLRREEo4RobXQaIjN-492" value="" style="rounded=0;whiteSpace=wrap;html=1;fontSize=20;fillColor=#000000;" parent="1" vertex="1">
          <mxGeometry x="214.8" y="350" width="10" height="10" as="geometry" />
        </mxCell>
        <mxCell id="FLBWLRREEo4RobXQaIjN-493" value="" style="rounded=0;whiteSpace=wrap;html=1;fontSize=20;fillColor=#000000;" parent="1" vertex="1">
          <mxGeometry x="-50" y="390" width="10" height="10" as="geometry" />
        </mxCell>
        <mxCell id="FLBWLRREEo4RobXQaIjN-494" value="" style="endArrow=classic;html=1;rounded=0;fontSize=20;edgeStyle=orthogonalEdgeStyle;" parent="1" source="FLBWLRREEo4RobXQaIjN-493" target="FLBWLRREEo4RobXQaIjN-492" edge="1">
          <mxGeometry width="50" height="50" relative="1" as="geometry">
            <mxPoint x="140" y="400" as="sourcePoint" />
            <mxPoint x="190" y="350" as="targetPoint" />
          </mxGeometry>
        </mxCell>
        <mxCell id="FLBWLRREEo4RobXQaIjN-496" value="2 x YM2149/&lt;br&gt;JT49 Sound" style="rounded=1;whiteSpace=wrap;html=1;fontSize=20;fillColor=#dae8fc;strokeColor=#000000;" parent="1" vertex="1">
          <mxGeometry x="-360" y="-70" width="130" height="60" as="geometry" />
        </mxCell>
        <mxCell id="FLBWLRREEo4RobXQaIjN-497" value="" style="rounded=0;whiteSpace=wrap;html=1;fontSize=20;fillColor=#dae8fc;strokeColor=#6c8ebf;" parent="1" vertex="1">
          <mxGeometry x="-211" y="-35" width="10" height="10" as="geometry" />
        </mxCell>
        <mxCell id="FLBWLRREEo4RobXQaIjN-498" value="" style="rounded=0;whiteSpace=wrap;html=1;fontSize=20;fillColor=#000000;" parent="1" vertex="1">
          <mxGeometry x="-160" y="-35" width="10" height="10" as="geometry" />
        </mxCell>
        <mxCell id="FLBWLRREEo4RobXQaIjN-499" value="" style="endArrow=classic;html=1;rounded=0;fontSize=20;" parent="1" source="FLBWLRREEo4RobXQaIjN-498" target="FLBWLRREEo4RobXQaIjN-497" edge="1">
          <mxGeometry width="50" height="50" relative="1" as="geometry">
            <mxPoint x="140" y="400" as="sourcePoint" />
            <mxPoint x="190" y="350" as="targetPoint" />
          </mxGeometry>
        </mxCell>
        <mxCell id="FLBWLRREEo4RobXQaIjN-501" value="sdspi" style="rounded=1;whiteSpace=wrap;html=1;fontSize=20;fillColor=#dae8fc;strokeColor=#000000;" parent="1" vertex="1">
          <mxGeometry x="-320.99995117187495" y="40" width="120" height="60" as="geometry" />
        </mxCell>
        <mxCell id="FLBWLRREEo4RobXQaIjN-502" value="" style="rounded=0;whiteSpace=wrap;html=1;fontSize=20;fillColor=#000000;" parent="1" vertex="1">
          <mxGeometry x="-211" y="65" width="10" height="10" as="geometry" />
        </mxCell>
        <mxCell id="FLBWLRREEo4RobXQaIjN-503" value="" style="rounded=0;whiteSpace=wrap;html=1;fontSize=20;fillColor=#000000;" parent="1" vertex="1">
          <mxGeometry x="-160" y="65" width="10" height="10" as="geometry" />
        </mxCell>
        <mxCell id="FLBWLRREEo4RobXQaIjN-504" value="" style="endArrow=classic;html=1;rounded=0;fontSize=20;" parent="1" source="FLBWLRREEo4RobXQaIjN-503" target="FLBWLRREEo4RobXQaIjN-502" edge="1">
          <mxGeometry width="50" height="50" relative="1" as="geometry">
            <mxPoint x="140" y="400" as="sourcePoint" />
            <mxPoint x="190" y="350" as="targetPoint" />
          </mxGeometry>
        </mxCell>
        <mxCell id="FLBWLRREEo4RobXQaIjN-505" value="wbuart32" style="rounded=1;whiteSpace=wrap;html=1;fontSize=20;fillColor=#DAE8FC;strokeColor=#000000;" parent="1" vertex="1">
          <mxGeometry x="-320.99995117187495" y="120" width="120" height="60" as="geometry" />
        </mxCell>
        <mxCell id="FLBWLRREEo4RobXQaIjN-506" value="" style="rounded=0;whiteSpace=wrap;html=1;fontSize=20;fillColor=#000000;" parent="1" vertex="1">
          <mxGeometry x="-211" y="145" width="10" height="10" as="geometry" />
        </mxCell>
        <mxCell id="FLBWLRREEo4RobXQaIjN-507" value="" style="rounded=0;whiteSpace=wrap;html=1;fontSize=20;fillColor=#000000;" parent="1" vertex="1">
          <mxGeometry x="-160" y="145" width="10" height="10" as="geometry" />
        </mxCell>
        <mxCell id="FLBWLRREEo4RobXQaIjN-508" value="" style="endArrow=classic;html=1;rounded=0;fontSize=20;" parent="1" source="FLBWLRREEo4RobXQaIjN-507" target="FLBWLRREEo4RobXQaIjN-506" edge="1">
          <mxGeometry width="50" height="50" relative="1" as="geometry">
            <mxPoint x="140" y="400" as="sourcePoint" />
            <mxPoint x="190" y="350" as="targetPoint" />
          </mxGeometry>
        </mxCell>
        <mxCell id="FLBWLRREEo4RobXQaIjN-509" value="wb_gpio" style="rounded=1;whiteSpace=wrap;html=1;fontSize=20;fillColor=#dae8fc;strokeColor=#000000;" parent="1" vertex="1">
          <mxGeometry x="-321" y="195" width="120" height="60" as="geometry" />
        </mxCell>
        <mxCell id="FLBWLRREEo4RobXQaIjN-510" value="" style="rounded=0;whiteSpace=wrap;html=1;fontSize=20;fillColor=#000000;" parent="1" vertex="1">
          <mxGeometry x="-211" y="220" width="10" height="10" as="geometry" />
        </mxCell>
        <mxCell id="FLBWLRREEo4RobXQaIjN-511" value="" style="rounded=0;whiteSpace=wrap;html=1;fontSize=20;fillColor=#000000;" parent="1" vertex="1">
          <mxGeometry x="-160" y="220" width="10" height="10" as="geometry" />
        </mxCell>
        <mxCell id="FLBWLRREEo4RobXQaIjN-512" value="" style="endArrow=classic;html=1;rounded=0;fontSize=20;" parent="1" source="FLBWLRREEo4RobXQaIjN-511" target="FLBWLRREEo4RobXQaIjN-510" edge="1">
          <mxGeometry width="50" height="50" relative="1" as="geometry">
            <mxPoint x="140" y="400" as="sourcePoint" />
            <mxPoint x="190" y="350" as="targetPoint" />
          </mxGeometry>
        </mxCell>
        <mxCell id="FLBWLRREEo4RobXQaIjN-513" value="USB HID" style="rounded=1;whiteSpace=wrap;html=1;fontSize=20;fillColor=#dae8fc;strokeColor=#000000;" parent="1" vertex="1">
          <mxGeometry x="-321" y="280" width="111" height="50" as="geometry" />
        </mxCell>
        <mxCell id="FLBWLRREEo4RobXQaIjN-528" value="&lt;font style=&quot;font-size: 20px;&quot;&gt;wb_timer&lt;br style=&quot;font-size: 20px;&quot;&gt;&lt;/font&gt;" style="rounded=1;whiteSpace=wrap;html=1;fillColor=#dae8fc;strokeColor=#000000;fontSize=20;" parent="1" vertex="1">
          <mxGeometry x="-320" y="360" width="119" height="60" as="geometry" />
        </mxCell>
        <mxCell id="FLBWLRREEo4RobXQaIjN-532" value="spiflash" style="rounded=1;whiteSpace=wrap;html=1;fontSize=20;align=center;fillColor=#dae8fc;strokeColor=#000000;" parent="1" vertex="1">
          <mxGeometry x="-320" y="440" width="120" height="60" as="geometry" />
        </mxCell>
        <mxCell id="FLBWLRREEo4RobXQaIjN-433" value="" style="rounded=0;whiteSpace=wrap;html=1;fontSize=20;fillColor=#000000;" parent="1" vertex="1">
          <mxGeometry x="130" y="160" width="10" height="10" as="geometry" />
        </mxCell>
        <mxCell id="FLBWLRREEo4RobXQaIjN-555" value="" style="endArrow=classic;html=1;rounded=0;fontSize=20;" parent="1" source="FLBWLRREEo4RobXQaIjN-557" target="FLBWLRREEo4RobXQaIjN-556" edge="1">
          <mxGeometry width="50" height="50" relative="1" as="geometry">
            <mxPoint x="-375" y="360" as="sourcePoint" />
            <mxPoint x="-350" y="310" as="targetPoint" />
          </mxGeometry>
        </mxCell>
        <mxCell id="FLBWLRREEo4RobXQaIjN-556" value="" style="rounded=0;whiteSpace=wrap;html=1;fontSize=20;fillColor=#000000;strokeColor=#000000;" parent="1" vertex="1">
          <mxGeometry x="-221" y="300" width="10" height="10" as="geometry" />
        </mxCell>
        <mxCell id="FLBWLRREEo4RobXQaIjN-557" value="" style="rounded=0;whiteSpace=wrap;html=1;fontSize=20;strokeColor=#000000;fillColor=#000000;" parent="1" vertex="1">
          <mxGeometry x="-160" y="300" width="10" height="10" as="geometry" />
        </mxCell>
        <mxCell id="FLBWLRREEo4RobXQaIjN-559" value="" style="endArrow=classic;html=1;rounded=0;fontSize=20;" parent="1" source="FLBWLRREEo4RobXQaIjN-561" target="FLBWLRREEo4RobXQaIjN-560" edge="1">
          <mxGeometry width="50" height="50" relative="1" as="geometry">
            <mxPoint x="-375" y="360" as="sourcePoint" />
            <mxPoint x="-350" y="310" as="targetPoint" />
          </mxGeometry>
        </mxCell>
        <mxCell id="FLBWLRREEo4RobXQaIjN-561" value="" style="rounded=0;whiteSpace=wrap;html=1;fontSize=20;strokeColor=#000000;fillColor=#000000;" parent="1" vertex="1">
          <mxGeometry x="-160" y="315" width="10" height="10" as="geometry" />
        </mxCell>
        <mxCell id="FLBWLRREEo4RobXQaIjN-562" value="" style="endArrow=classic;html=1;rounded=0;fontSize=20;" parent="1" source="FLBWLRREEo4RobXQaIjN-564" target="FLBWLRREEo4RobXQaIjN-563" edge="1">
          <mxGeometry width="50" height="50" relative="1" as="geometry">
            <mxPoint x="-375" y="360" as="sourcePoint" />
            <mxPoint x="-350" y="310" as="targetPoint" />
          </mxGeometry>
        </mxCell>
        <mxCell id="FLBWLRREEo4RobXQaIjN-563" value="" style="rounded=0;whiteSpace=wrap;html=1;fontSize=20;fillColor=#000000;strokeColor=#000000;" parent="1" vertex="1">
          <mxGeometry x="-210" y="385" width="10" height="10" as="geometry" />
        </mxCell>
        <mxCell id="FLBWLRREEo4RobXQaIjN-564" value="" style="rounded=0;whiteSpace=wrap;html=1;fontSize=20;strokeColor=#000000;fillColor=#000000;" parent="1" vertex="1">
          <mxGeometry x="-160" y="385" width="10" height="10" as="geometry" />
        </mxCell>
        <mxCell id="FLBWLRREEo4RobXQaIjN-566" value="" style="endArrow=classic;html=1;rounded=0;fontSize=20;" parent="1" source="FLBWLRREEo4RobXQaIjN-568" target="FLBWLRREEo4RobXQaIjN-567" edge="1">
          <mxGeometry width="50" height="50" relative="1" as="geometry">
            <mxPoint x="-375" y="360" as="sourcePoint" />
            <mxPoint x="-350" y="310" as="targetPoint" />
          </mxGeometry>
        </mxCell>
        <mxCell id="FLBWLRREEo4RobXQaIjN-567" value="" style="rounded=0;whiteSpace=wrap;html=1;fontSize=20;fillColor=#000000;strokeColor=#000000;" parent="1" vertex="1">
          <mxGeometry x="-210" y="465" width="10" height="10" as="geometry" />
        </mxCell>
        <mxCell id="FLBWLRREEo4RobXQaIjN-568" value="" style="rounded=0;whiteSpace=wrap;html=1;fontSize=20;strokeColor=#000000;fillColor=#000000;" parent="1" vertex="1">
          <mxGeometry x="-160" y="465" width="10" height="10" as="geometry" />
        </mxCell>
        <mxCell id="FLBWLRREEo4RobXQaIjN-578" value="256MB DDR3" style="rounded=1;whiteSpace=wrap;html=1;fontSize=20;fillColor=#dae8fc;strokeColor=#000000;" parent="1" vertex="1">
          <mxGeometry x="160" y="420" width="120" height="80" as="geometry" />
        </mxCell>
        <mxCell id="FLBWLRREEo4RobXQaIjN-579" value="" style="endArrow=classic;html=1;rounded=0;fontSize=20;exitX=0.75;exitY=1;exitDx=0;exitDy=0;entryX=0.75;entryY=0;entryDx=0;entryDy=0;edgeStyle=orthogonalEdgeStyle;" parent="1" source="FLBWLRREEo4RobXQaIjN-402" target="FLBWLRREEo4RobXQaIjN-578" edge="1">
          <mxGeometry width="50" height="50" relative="1" as="geometry">
            <mxPoint x="240" y="500" as="sourcePoint" />
            <mxPoint x="290" y="450" as="targetPoint" />
          </mxGeometry>
        </mxCell>
        <mxCell id="FLBWLRREEo4RobXQaIjN-580" value="Audio DAC" style="rounded=1;whiteSpace=wrap;html=1;strokeColor=#6c8ebf;strokeWidth=1;fillColor=#dae8fc;fontSize=20;" parent="1" vertex="1">
          <mxGeometry x="-321" y="-180" width="80" height="60" as="geometry" />
        </mxCell>
        <mxCell id="FLBWLRREEo4RobXQaIjN-585" value="" style="endArrow=classic;html=1;rounded=0;fontSize=20;" parent="1" source="FLBWLRREEo4RobXQaIjN-496" edge="1">
          <mxGeometry width="50" height="50" relative="1" as="geometry">
            <mxPoint x="-280" y="10" as="sourcePoint" />
            <mxPoint x="-295" y="-120" as="targetPoint" />
          </mxGeometry>
        </mxCell>
        <mxCell id="FLBWLRREEo4RobXQaIjN-586" value="microSD" style="rounded=1;whiteSpace=wrap;html=1;fontSize=20;align=center;fillColor=#dae8fc;strokeColor=#000000;" parent="1" vertex="1">
          <mxGeometry x="-460" y="43" width="100" height="54" as="geometry" />
        </mxCell>
        <mxCell id="FLBWLRREEo4RobXQaIjN-587" value="" style="endArrow=classic;html=1;rounded=0;fontSize=20;" parent="1" source="FLBWLRREEo4RobXQaIjN-501" target="FLBWLRREEo4RobXQaIjN-586" edge="1">
          <mxGeometry width="50" height="50" relative="1" as="geometry">
            <mxPoint x="-130" y="300" as="sourcePoint" />
            <mxPoint x="-80" y="250" as="targetPoint" />
          </mxGeometry>
        </mxCell>
        <mxCell id="FLBWLRREEo4RobXQaIjN-588" value="16MB Flash" style="rounded=1;whiteSpace=wrap;html=1;fontSize=20;align=center;fillColor=#dae8fc;strokeColor=#6c8ebf;" parent="1" vertex="1">
          <mxGeometry x="-451" y="440" width="91" height="60" as="geometry" />
        </mxCell>
        <mxCell id="FLBWLRREEo4RobXQaIjN-589" value="" style="endArrow=classic;html=1;rounded=0;fontSize=20;" parent="1" source="FLBWLRREEo4RobXQaIjN-532" target="FLBWLRREEo4RobXQaIjN-588" edge="1">
          <mxGeometry width="50" height="50" relative="1" as="geometry">
            <mxPoint x="-160" y="270" as="sourcePoint" />
            <mxPoint x="-110" y="220" as="targetPoint" />
          </mxGeometry>
        </mxCell>
        <mxCell id="FLBWLRREEo4RobXQaIjN-598" value="" style="endArrow=classic;html=1;rounded=0;fontSize=20;" parent="1" source="FLBWLRREEo4RobXQaIjN-600" target="FLBWLRREEo4RobXQaIjN-599" edge="1">
          <mxGeometry width="50" height="50" relative="1" as="geometry">
            <mxPoint x="-375" y="360" as="sourcePoint" />
            <mxPoint x="-350" y="310" as="targetPoint" />
          </mxGeometry>
        </mxCell>
        <mxCell id="FLBWLRREEo4RobXQaIjN-600" value="" style="rounded=0;whiteSpace=wrap;html=1;fontSize=20;strokeColor=#000000;fillColor=#000000;" parent="1" vertex="1">
          <mxGeometry x="-50" y="305" width="10" height="10" as="geometry" />
        </mxCell>
        <mxCell id="FLBWLRREEo4RobXQaIjN-602" value="&lt;b&gt;Audio PDM Out&lt;/b&gt;" style="endArrow=classic;html=1;rounded=0;fontSize=20;exitX=0.5;exitY=0;exitDx=0;exitDy=0;" parent="1" source="FLBWLRREEo4RobXQaIjN-580" edge="1">
          <mxGeometry x="0.1006" y="-80" width="50" height="50" relative="1" as="geometry">
            <mxPoint y="-330" as="sourcePoint" />
            <mxPoint x="-280" y="-220" as="targetPoint" />
            <mxPoint as="offset" />
          </mxGeometry>
        </mxCell>
        <mxCell id="FLBWLRREEo4RobXQaIjN-603" value="&lt;b&gt;VGA Out&lt;/b&gt;" style="endArrow=classic;html=1;rounded=0;fontSize=20;exitX=0.5;exitY=0;exitDx=0;exitDy=0;" parent="1" source="FLBWLRREEo4RobXQaIjN-404" edge="1">
          <mxGeometry x="0.208" y="-50" width="50" height="50" relative="1" as="geometry">
            <mxPoint y="70" as="sourcePoint" />
            <mxPoint x="380" y="-50" as="targetPoint" />
            <mxPoint as="offset" />
          </mxGeometry>
        </mxCell>
        <mxCell id="FLBWLRREEo4RobXQaIjN-604" value="&lt;b&gt;Serial&lt;br&gt;Port&lt;/b&gt;" style="endArrow=classic;html=1;rounded=0;fontSize=20;exitX=0;exitY=0.5;exitDx=0;exitDy=0;" parent="1" source="FLBWLRREEo4RobXQaIjN-505" edge="1">
          <mxGeometry x="1" y="30" width="50" height="50" relative="1" as="geometry">
            <mxPoint x="-230" y="270" as="sourcePoint" />
            <mxPoint x="-380" y="150" as="targetPoint" />
            <mxPoint x="-30" y="-30" as="offset" />
          </mxGeometry>
        </mxCell>
        <mxCell id="p28HQPg9eJS1FNvsS2dK-1" value="reset_ctrl" style="rounded=1;whiteSpace=wrap;html=1;fontSize=20;align=center;fillColor=#DAE8FC;" parent="1" vertex="1">
          <mxGeometry x="-0.19999999999998863" y="280" width="120" height="60" as="geometry" />
        </mxCell>
        <mxCell id="FLBWLRREEo4RobXQaIjN-599" value="" style="rounded=0;whiteSpace=wrap;html=1;fontSize=20;fillColor=#000000;strokeColor=#000000;" parent="1" vertex="1">
          <mxGeometry x="1" y="305" width="10" height="10" as="geometry" />
        </mxCell>
        <mxCell id="5XcpEkxSiLja0QC8N5L6-5" value="&lt;b&gt;2x USB&lt;br&gt;Port&lt;/b&gt;" style="endArrow=classic;html=1;rounded=0;fontSize=20;exitX=0;exitY=0.5;exitDx=0;exitDy=0;" parent="1" source="FLBWLRREEo4RobXQaIjN-513" edge="1">
          <mxGeometry x="1" y="40" width="50" height="50" relative="1" as="geometry">
            <mxPoint x="-310.99995117187495" y="160" as="sourcePoint" />
            <mxPoint x="-380" y="305" as="targetPoint" />
            <mxPoint x="-40" y="-40" as="offset" />
          </mxGeometry>
        </mxCell>
        <mxCell id="4bRXpbhqNIF28OFvk-0r-1" value="" style="rounded=0;whiteSpace=wrap;html=1;fillColor=none;strokeColor=none;" parent="1" vertex="1">
          <mxGeometry x="-160" y="540" width="120" height="60" as="geometry" />
        </mxCell>
        <mxCell id="zmVS8ForYm6n49sVDWzN-1" value="" style="endArrow=classic;html=1;rounded=0;fontSize=20;" edge="1" parent="1" source="zmVS8ForYm6n49sVDWzN-2" target="zmVS8ForYm6n49sVDWzN-4">
          <mxGeometry width="50" height="50" relative="1" as="geometry">
            <mxPoint x="-375" y="520" as="sourcePoint" />
            <mxPoint x="-350" y="470" as="targetPoint" />
          </mxGeometry>
        </mxCell>
        <mxCell id="zmVS8ForYm6n49sVDWzN-2" value="" style="rounded=0;whiteSpace=wrap;html=1;fontSize=20;strokeColor=#000000;fillColor=#000000;" vertex="1" parent="1">
          <mxGeometry x="-50" y="465" width="10" height="10" as="geometry" />
        </mxCell>
        <mxCell id="zmVS8ForYm6n49sVDWzN-3" value="wb_i2c" style="rounded=1;whiteSpace=wrap;html=1;fontSize=20;align=center;" vertex="1" parent="1">
          <mxGeometry x="-0.19999999999998863" y="440" width="120" height="60" as="geometry" />
        </mxCell>
        <mxCell id="zmVS8ForYm6n49sVDWzN-4" value="" style="rounded=0;whiteSpace=wrap;html=1;fontSize=20;fillColor=#000000;strokeColor=#000000;" vertex="1" parent="1">
          <mxGeometry x="1" y="465" width="10" height="10" as="geometry" />
        </mxCell>
      </root>
    </mxGraphModel>
  </diagram>
</mxfile>
